# xmcd
#
# Track frame offsets: 
#        150
#        15897
#        41365
#        69930
#        105852
#        135920
#        164745
#        188772
#        216625
#        229282
#
# Disc length: 3340 seconds
#
# Revision: 1
# Processed by: cddbd v1.5.2PL0 Copyright (c) Steve Scherf et al.
# Submitted via: ExactAudioCopyFreeDBPlugin 1.0
#
DISCID=7b0d0a0a
DTITLE=Various Artist - The Sound Of "Naim"
DYEAR=1900
DGENRE=Jazz
TTITLE0=Avtonio Forcione - Sabina Sciubba -Take Five
TTITLE1=Acoustic Mania - Birdland
TTITLE2=Ted Sirota's Rebel Souls - Brilliant Corners
TTITLE3=Ted Sirota's Rebel Souls - Wru
TTITLE4=Ted Sirota's Rebel Souls - First Song
TTITLE5=Laurence Hobgood - Brian Torff - Paul Wertico - My One And Onl
TTITLE5=y Love
TTITLE6=Laurence Hobgood - Brian Torff - Paul Wertico - The Very Thoug
TTITLE6=ht Of You
TTITLE7=Laurence Hobgood - Brian Torff - Paul Wertico - The Late, Late
TTITLE7=Blues
TTITLE8=Laurence Hobgood - Brian Torff - Paul Wertico - What Am I Here
TTITLE8=For
TTITLE9=Avtonio Forcione - Sabina Sciubba - Could You Believe?
EXTD=
EXTT0=
EXTT1=
EXTT2=
EXTT3=
EXTT4=
EXTT5=
EXTT6=
EXTT7=
EXTT8=
EXTT9=
PLAYORDER=
